# xmcd
#
# Track frame offsets:
#       150
#       16502
#       38047
#       57377
#       76980
#       96127
#       114272
#       133442
#       149797
#
# Disc length: 2242 seconds
#
#
# Revision: 0
# Processed by: cddbd v1.4PL0 Copyright (c) Steve Scherf et al.
# Submitted via: Visual Ripper tool of Visual MP3 v4.18
#
DISCID=7608c009
DTITLE=Heatwave - Heatwave's Greatest Hits
DYEAR=1900
DGENRE=Blues
TTITLE0=Boogie Nights
TTITLE1=Always and Forever
TTITLE2=Lettin' it Loose
TTITLE3=Look After Love
TTITLE4=The Groove Line
TTITLE5=Gangsters of the Groove
TTITLE6=Mind Blowing Decisions
TTITLE7=Posin' Til Closin'
TTITLE8=The Big Guns
EXTD=
EXTT0=
EXTT1=
EXTT2=
EXTT3=
EXTT4=
EXTT5=
EXTT6=
EXTT7=
EXTT8=
PLAYORDER=
